# xmcd
#
# Track frame offsets:
#	150
#	15519
#	33243
#	46739
#	60275
#	75148
#	91618
#	112722
#	133015
#	146797
#	155442
#	173200
#
# Disc length: 2448
#
# Revision: 1
# Processed by: cddbd v1.5.1PL0 Copyright (c) Steve Scherf et al.
# Submitted via: VisiTrax 2.9.10.228 - For more info visit www.synapsa.com
# Normalized: r0:DSETVAR1
#
DISCID=7c098e0c
DTITLE=Various Artist - KMLENation Compilation Vol. 1
DYEAR=2004
DGENRE=
TTITLE0=Dierks Bentley - What Was I Thinking
TTITLE1=Tracy Lawrence - Paint Me A Birmingham
TTITLE2=Emerson Drive - I Should Be Sleeping
TTITLE3=David Lee Murphy - Loco
TTITLE4=Terri Clark - I Just Wanna Be Mad
TTITLE5=Jimmy Wayne - Stay Gone
TTITLE6=Blake Shelton - Playboys Of The Southwest World
TTITLE7=Sherrie Austin - Streets Of Heaven
TTITLE8=Billy Currington - I Got A Feeling
TTITLE9=Brian McComas - 99.9% Sure
TTITLE10=Buddy Jewell - Help Pour Out The Rain
TTITLE11=Hank Williams, Jr. - Liquor To Like Her
EXTD=Presented by Fulton Homes\nProceeds Benefiting Phoenix Children's Hospital
EXTT0=
EXTT1=
EXTT2=
EXTT3=
EXTT4=
EXTT5=
EXTT6=
EXTT7=
EXTT8=
EXTT9=
EXTT10=
EXTT11=
PLAYORDER=
